<?xml version="1.0" standalone="no"?>
<!DOCTYPE svg PUBLIC "-//W3C//DTD SVG 20010904//EN"
 "http://www.w3.org/TR/2001/REC-SVG-20010904/DTD/svg10.dtd">
<svg version="1.0" xmlns="http://www.w3.org/2000/svg"
 width="513.000000pt" height="504.000000pt" viewBox="0 0 513.000000 504.000000"
 preserveAspectRatio="xMidYMid meet">

<g transform="translate(0.000000,504.000000) scale(0.100000,-0.100000)"
fill="#000000" stroke="none">
<path d="M2245 5024 c-27 -2 -115 -9 -195 -14 -412 -31 -803 -112 -1047 -218
-125 -54 -241 -132 -320 -215 -80 -85 -126 -166 -153 -273 -20 -75 -20 -117
-20 -1836 l0 -1758 155 0 155 0 0 -248 c0 -247 0 -248 26 -300 31 -62 90 -115
152 -136 67 -23 488 -23 555 0 64 22 129 82 158 146 22 50 24 66 27 296 l4
242 823 0 824 0 3 -257 3 -258 27 -47 c15 -25 46 -60 67 -77 73 -58 102 -63
378 -59 l248 3 45 27 c60 35 94 72 122 133 22 47 23 64 26 293 l4 242 154 0
154 0 0 1758 c0 1719 0 1761 -20 1836 -66 259 -288 443 -676 561 -212 64 -507
116 -829 145 -118 11 -752 21 -850 14z m995 -374 c18 -18 20 -33 20 -150 0
-117 -2 -132 -20 -150 -20 -20 -33 -20 -675 -20 -642 0 -655 0 -675 20 -18 18
-20 33 -20 150 0 117 2 132 20 150 20 20 33 20 675 20 642 0 655 0 675 -20z
m969 -609 c11 -11 23 -35 26 -53 3 -18 4 -435 3 -926 l-3 -894 -28 -24 -28
-24 -1625 0 -1625 0 -24 25 -25 24 0 919 c0 915 0 919 21 946 l20 26 1635 0
c1605 0 1634 0 1653 -19z m-2813 -2276 c60 -18 125 -71 161 -132 20 -34 27
-63 31 -119 6 -92 -14 -149 -72 -212 -57 -62 -106 -84 -196 -90 -96 -6 -160
19 -223 87 -61 65 -81 122 -75 213 6 90 30 141 94 197 76 66 177 87 280 56z
m2521 0 c65 -19 139 -85 169 -150 49 -103 26 -235 -54 -318 -63 -66 -104 -82
-207 -82 -80 0 -95 3 -136 27 -60 35 -112 94 -134 151 -22 57 -17 175 9 224
67 131 210 190 353 148z"/>
<path d="M127 3335 c-45 -15 -82 -47 -105 -90 -14 -25 -17 -73 -20 -313 -4
-298 2 -362 39 -413 37 -52 86 -69 199 -69 l100 0 0 450 0 450 -87 0 c-49 -1
-105 -7 -126 -15z"/>
<path d="M4790 2900 l0 -450 100 0 c115 0 162 17 202 72 23 33 23 35 26 362 3
360 2 366 -54 416 -43 38 -90 50 -191 50 l-83 0 0 -450z"/>
</g>
</svg>
